<svg xmlns="http://www.w3.org/2000/svg" width="375" viewBox="0 0 375 375" height="375" version="1.0"><defs><clipPath id="a"><path d="M 22 22 L 353 22 L 353 352 L 22 352 Z M 22 22"/></clipPath><clipPath id="b"><path d="M 417.144531 228.3125 L 146.566406 417.226562 L -42.34375 146.648438 L 228.230469 -42.265625 Z M 417.144531 228.3125"/></clipPath><clipPath id="c"><path d="M 417.144531 228.3125 L 146.566406 417.226562 L -42.34375 146.648438 L 228.230469 -42.265625 Z M 417.144531 228.3125"/></clipPath><clipPath id="d"><path d="M 70 72 L 305 72 L 305 305 L 70 305 Z M 70 72"/></clipPath><clipPath id="e"><path d="M 417.144531 228.3125 L 146.566406 417.226562 L -42.34375 146.648438 L 228.230469 -42.265625 Z M 417.144531 228.3125"/></clipPath><clipPath id="f"><path d="M 417.144531 228.3125 L 146.566406 417.226562 L -42.34375 146.648438 L 228.230469 -42.265625 Z M 417.144531 228.3125"/></clipPath><clipPath id="g"><path d="M 118 118 L 250 118 L 250 256 L 118 256 Z M 118 118"/></clipPath><clipPath id="h"><path d="M 417.144531 228.3125 L 146.566406 417.226562 L -42.34375 146.648438 L 228.230469 -42.265625 Z M 417.144531 228.3125"/></clipPath><clipPath id="i"><path d="M 417.144531 228.3125 L 146.566406 417.226562 L -42.34375 146.648438 L 228.230469 -42.265625 Z M 417.144531 228.3125"/></clipPath></defs><g clip-path="url(#a)"><g clip-path="url(#b)"><g clip-path="url(#c)"><path fill="#5E17EB" d="M 52.101562 281.921875 C 50.390625 279.472656 48.746094 276.976562 47.171875 274.433594 C 45.597656 271.894531 44.09375 269.308594 42.65625 266.6875 C 41.222656 264.0625 39.859375 261.40625 38.570312 258.707031 C 37.28125 256.011719 36.0625 253.28125 34.921875 250.515625 C 33.78125 247.753906 32.714844 244.960938 31.722656 242.140625 C 30.734375 239.320312 29.820312 236.472656 28.984375 233.601562 C 28.148438 230.730469 27.394531 227.839844 26.714844 224.929688 C 26.039062 222.015625 25.4375 219.089844 24.917969 216.144531 C 24.402344 213.199219 23.960938 210.242188 23.605469 207.273438 C 23.246094 204.304688 22.96875 201.328125 22.773438 198.347656 C 22.574219 195.363281 22.460938 192.375 22.425781 189.386719 C 22.390625 186.398438 22.441406 183.410156 22.566406 180.421875 C 22.695312 177.433594 22.90625 174.453125 23.195312 171.476562 C 23.488281 168.503906 23.859375 165.535156 24.308594 162.582031 C 24.761719 159.625 25.292969 156.683594 25.90625 153.757812 C 26.515625 150.832031 27.207031 147.921875 27.976562 145.035156 C 28.746094 142.144531 29.59375 139.277344 30.519531 136.4375 C 31.445312 133.59375 32.449219 130.777344 33.527344 127.988281 C 34.605469 125.199219 35.757812 122.441406 36.988281 119.71875 C 38.214844 116.992188 39.515625 114.300781 40.890625 111.644531 C 42.265625 108.992188 43.710938 106.375 45.230469 103.796875 C 46.746094 101.222656 48.332031 98.6875 49.988281 96.199219 C 51.640625 93.707031 53.363281 91.265625 55.148438 88.867188 C 56.9375 86.472656 58.789062 84.125 60.703125 81.828125 C 62.621094 79.535156 64.59375 77.292969 66.632812 75.101562 C 68.667969 72.914062 70.765625 70.78125 72.917969 68.707031 C 75.070312 66.632812 77.277344 64.617188 79.539062 62.664062 C 81.804688 60.710938 84.117188 58.816406 86.480469 56.988281 C 88.847656 55.160156 91.261719 53.398438 93.722656 51.699219 C 96.183594 50 98.6875 48.371094 101.238281 46.808594 C 103.789062 45.25 106.378906 43.757812 109.007812 42.335938 C 111.640625 40.917969 114.308594 39.570312 117.011719 38.292969 C 119.714844 37.019531 122.453125 35.816406 125.222656 34.691406 C 127.992188 33.5625 130.789062 32.511719 133.617188 31.539062 C 136.441406 30.5625 139.292969 29.664062 142.167969 28.847656 C 145.042969 28.027344 147.9375 27.285156 150.855469 26.621094 C 153.769531 25.960938 156.703125 25.378906 159.648438 24.875 C 162.597656 24.371094 165.554688 23.949219 168.523438 23.609375 C 171.496094 23.265625 174.472656 23.003906 177.457031 22.824219 C 180.441406 22.644531 183.429688 22.546875 186.417969 22.527344 C 189.410156 22.511719 192.394531 22.574219 195.382812 22.71875 C 198.367188 22.863281 201.347656 23.089844 204.324219 23.394531 C 207.296875 23.703125 210.261719 24.089844 213.214844 24.558594 C 216.167969 25.023438 219.105469 25.574219 222.027344 26.199219 C 224.953125 26.828125 227.855469 27.535156 230.742188 28.320312 C 233.625 29.105469 236.488281 29.96875 239.324219 30.910156 C 242.164062 31.851562 244.972656 32.867188 247.753906 33.960938 C 250.539062 35.054688 253.289062 36.222656 256.007812 37.46875 C 258.726562 38.710938 261.410156 40.027344 264.058594 41.414062 C 266.707031 42.804688 269.3125 44.265625 271.882812 45.796875 C 274.449219 47.328125 276.972656 48.925781 279.457031 50.59375 C 281.9375 52.261719 284.371094 53.996094 286.757812 55.796875 C 289.144531 57.597656 291.480469 59.460938 293.765625 61.390625 C 296.050781 63.316406 298.28125 65.304688 300.460938 67.355469 C 302.636719 69.402344 304.757812 71.511719 306.820312 73.675781 C 308.882812 75.839844 310.886719 78.058594 312.828125 80.332031 C 314.769531 82.605469 316.648438 84.929688 318.464844 87.304688 C 320.28125 89.679688 322.03125 92.101562 323.714844 94.570312 C 325.402344 97.042969 327.015625 99.554688 328.5625 102.113281 C 330.113281 104.671875 331.589844 107.269531 332.996094 109.910156 C 334.402344 112.546875 335.734375 115.222656 336.996094 117.933594 C 338.257812 120.644531 339.441406 123.386719 340.554688 126.164062 C 341.664062 128.9375 342.703125 131.742188 343.660156 134.574219 C 344.621094 137.40625 345.5 140.261719 346.304688 143.140625 C 347.109375 146.019531 347.835938 148.921875 348.480469 151.839844 C 349.128906 154.757812 349.695312 157.695312 350.179688 160.644531 C 350.667969 163.59375 351.074219 166.554688 351.398438 169.527344 C 351.726562 172.5 351.972656 175.476562 352.132812 178.460938 C 352.296875 181.449219 352.382812 184.433594 352.382812 187.425781 C 352.382812 190.414062 352.304688 193.402344 352.144531 196.386719 C 351.984375 199.375 351.742188 202.351562 351.417969 205.324219 C 351.09375 208.296875 350.691406 211.257812 350.207031 214.210938 C 349.722656 217.160156 349.160156 220.09375 348.515625 223.015625 C 347.875 225.933594 347.152344 228.835938 346.351562 231.714844 C 345.546875 234.597656 344.671875 237.453125 343.714844 240.285156 C 342.757812 243.117188 341.722656 245.921875 340.617188 248.699219 C 339.507812 251.476562 338.324219 254.21875 337.066406 256.933594 C 335.808594 259.644531 334.476562 262.320312 333.074219 264.960938 C 331.667969 267.601562 330.195312 270.199219 328.648438 272.761719 C 327.105469 275.320312 325.492188 277.835938 323.808594 280.308594 C 322.128906 282.78125 320.378906 285.203125 318.566406 287.582031 C 316.753906 289.957031 314.875 292.285156 312.9375 294.558594 C 310.996094 296.835938 308.996094 299.054688 306.933594 301.222656 C 304.875 303.386719 302.757812 305.496094 300.582031 307.546875 C 298.40625 309.597656 296.175781 311.589844 293.890625 313.519531 C 291.609375 315.449219 289.273438 317.316406 286.890625 319.117188 C 284.503906 320.921875 282.070312 322.660156 279.59375 324.328125 C 277.113281 326 274.589844 327.601562 272.023438 329.136719 C 269.457031 330.667969 266.851562 332.132812 264.203125 333.523438 C 261.558594 334.914062 258.875 336.234375 256.160156 337.480469 C 253.441406 338.726562 250.691406 339.898438 247.910156 340.996094 C 245.128906 342.089844 242.320312 343.113281 239.480469 344.054688 C 236.644531 345 233.785156 345.863281 230.902344 346.652344 C 228.015625 347.441406 225.113281 348.152344 222.191406 348.78125 C 219.269531 349.414062 216.332031 349.960938 213.378906 350.433594 C 210.425781 350.90625 207.460938 351.292969 204.488281 351.605469 L 201.617188 324.058594 C 204.089844 323.796875 206.558594 323.46875 209.015625 323.074219 C 211.472656 322.679688 213.917969 322.21875 216.351562 321.691406 C 218.785156 321.164062 221.199219 320.570312 223.601562 319.910156 C 226 319.25 228.382812 318.527344 230.742188 317.738281 C 233.105469 316.949219 235.441406 316.097656 237.757812 315.183594 C 240.074219 314.269531 242.359375 313.289062 244.621094 312.25 C 246.882812 311.210938 249.117188 310.109375 251.316406 308.949219 C 253.519531 307.785156 255.6875 306.566406 257.824219 305.289062 C 259.960938 304.007812 262.058594 302.671875 264.121094 301.277344 C 266.183594 299.886719 268.207031 298.4375 270.191406 296.933594 C 272.175781 295.429688 274.117188 293.875 276.015625 292.265625 C 277.917969 290.65625 279.769531 288.996094 281.582031 287.289062 C 283.390625 285.578125 285.152344 283.820312 286.863281 282.015625 C 288.578125 280.210938 290.242188 278.359375 291.855469 276.464844 C 293.46875 274.566406 295.027344 272.628906 296.535156 270.648438 C 298.042969 268.667969 299.496094 266.648438 300.894531 264.585938 C 302.292969 262.527344 303.632812 260.429688 304.917969 258.296875 C 306.203125 256.167969 307.425781 254 308.59375 251.800781 C 309.761719 249.601562 310.867188 247.371094 311.910156 245.113281 C 312.957031 242.855469 313.9375 240.566406 314.859375 238.253906 C 315.78125 235.941406 316.636719 233.605469 317.429688 231.246094 C 318.226562 228.886719 318.953125 226.507812 319.617188 224.109375 C 320.28125 221.710938 320.882812 219.296875 321.414062 216.863281 C 321.949219 214.433594 322.414062 211.988281 322.8125 209.53125 C 323.214844 207.074219 323.546875 204.609375 323.8125 202.132812 C 324.082031 199.65625 324.277344 197.175781 324.410156 194.691406 C 324.542969 192.207031 324.605469 189.71875 324.601562 187.230469 C 324.597656 184.738281 324.527344 182.25 324.386719 179.765625 C 324.246094 177.28125 324.039062 174.800781 323.765625 172.328125 C 323.492188 169.851562 323.152344 167.386719 322.742188 164.933594 C 322.335938 162.476562 321.863281 160.035156 321.320312 157.605469 C 320.78125 155.175781 320.171875 152.761719 319.5 150.363281 C 318.828125 147.96875 318.09375 145.589844 317.292969 143.234375 C 316.492188 140.875 315.625 138.542969 314.699219 136.234375 C 313.769531 133.921875 312.78125 131.640625 311.726562 129.382812 C 310.675781 127.128906 309.5625 124.902344 308.390625 122.707031 C 307.214844 120.511719 305.984375 118.351562 304.695312 116.222656 C 303.402344 114.09375 302.054688 112 300.652344 109.945312 C 299.246094 107.890625 297.785156 105.875 296.273438 103.898438 C 294.757812 101.921875 293.191406 99.988281 291.574219 98.097656 C 289.953125 96.207031 288.285156 94.363281 286.566406 92.5625 C 284.847656 90.761719 283.078125 89.011719 281.265625 87.304688 C 279.449219 85.601562 277.589844 83.949219 275.683594 82.347656 C 273.78125 80.742188 271.832031 79.191406 269.84375 77.695312 C 267.855469 76.199219 265.828125 74.757812 263.761719 73.371094 C 261.691406 71.984375 259.589844 70.652344 257.449219 69.382812 C 255.3125 68.109375 253.136719 66.894531 250.933594 65.742188 C 248.726562 64.585938 246.492188 63.492188 244.226562 62.460938 C 241.960938 61.429688 239.671875 60.457031 237.351562 59.550781 C 235.035156 58.640625 232.695312 57.796875 230.332031 57.015625 C 227.96875 56.234375 225.585938 55.519531 223.183594 54.867188 C 220.777344 54.214844 218.359375 53.628906 215.925781 53.109375 C 213.492188 52.589844 211.046875 52.136719 208.585938 51.75 C 206.128906 51.363281 203.660156 51.042969 201.183594 50.789062 C 198.707031 50.539062 196.226562 50.351562 193.738281 50.234375 C 191.25 50.117188 188.765625 50.066406 186.273438 50.082031 C 183.785156 50.101562 181.296875 50.1875 178.8125 50.339844 C 176.328125 50.492188 173.851562 50.710938 171.378906 51 C 168.90625 51.285156 166.441406 51.640625 163.988281 52.0625 C 161.535156 52.484375 159.09375 52.96875 156.667969 53.523438 C 154.242188 54.078125 151.832031 54.699219 149.4375 55.382812 C 147.046875 56.066406 144.671875 56.816406 142.320312 57.632812 C 139.96875 58.445312 137.636719 59.324219 135.332031 60.261719 C 133.027344 61.203125 130.75 62.207031 128.5 63.269531 C 126.25 64.335938 124.03125 65.460938 121.84375 66.644531 C 119.652344 67.828125 117.496094 69.074219 115.375 70.375 C 113.253906 71.675781 111.167969 73.035156 109.121094 74.453125 C 107.074219 75.867188 105.066406 77.335938 103.097656 78.863281 C 101.132812 80.386719 99.207031 81.964844 97.324219 83.59375 C 95.441406 85.222656 93.605469 86.902344 91.816406 88.632812 C 90.023438 90.359375 88.28125 92.136719 86.589844 93.960938 C 84.894531 95.785156 83.25 97.652344 81.660156 99.566406 C 80.066406 101.480469 78.527344 103.433594 77.039062 105.433594 C 75.554688 107.429688 74.121094 109.464844 72.746094 111.539062 C 71.371094 113.613281 70.054688 115.726562 68.792969 117.871094 C 67.53125 120.019531 66.332031 122.195312 65.1875 124.410156 C 64.046875 126.621094 62.964844 128.859375 61.945312 131.132812 C 60.921875 133.402344 59.964844 135.699219 59.070312 138.019531 C 58.171875 140.34375 57.34375 142.6875 56.574219 145.058594 C 55.804688 147.425781 55.101562 149.8125 54.464844 152.21875 C 53.824219 154.625 53.253906 157.046875 52.746094 159.484375 C 52.238281 161.921875 51.800781 164.367188 51.425781 166.832031 C 51.050781 169.292969 50.746094 171.761719 50.507812 174.238281 C 50.265625 176.714844 50.09375 179.199219 49.992188 181.6875 C 49.886719 184.171875 49.847656 186.660156 49.878906 189.148438 C 49.910156 191.640625 50.007812 194.125 50.175781 196.609375 C 50.34375 199.09375 50.574219 201.570312 50.875 204.042969 C 51.175781 206.511719 51.542969 208.972656 51.980469 211.425781 C 52.414062 213.875 52.914062 216.3125 53.480469 218.738281 C 54.046875 221.160156 54.679688 223.566406 55.378906 225.957031 C 56.078125 228.347656 56.839844 230.714844 57.664062 233.0625 C 58.492188 235.410156 59.382812 237.734375 60.335938 240.035156 C 61.289062 242.335938 62.304688 244.605469 63.378906 246.851562 C 64.457031 249.097656 65.59375 251.308594 66.789062 253.492188 C 67.988281 255.675781 69.242188 257.824219 70.554688 259.9375 C 71.867188 262.050781 73.238281 264.128906 74.664062 266.167969 Z M 52.101562 281.921875" fill-rule="evenodd"/></g></g></g><g clip-path="url(#d)"><g clip-path="url(#e)"><g clip-path="url(#f)"><path fill="#66F" d="M 207.964844 72.292969 C 210.074219 72.667969 212.167969 73.097656 214.25 73.589844 C 216.335938 74.078125 218.402344 74.625 220.453125 75.226562 C 222.507812 75.828125 224.542969 76.488281 226.558594 77.203125 C 228.578125 77.917969 230.570312 78.6875 232.546875 79.511719 C 234.519531 80.335938 236.472656 81.210938 238.398438 82.144531 C 240.324219 83.074219 242.222656 84.058594 244.097656 85.09375 C 245.96875 86.128906 247.8125 87.214844 249.625 88.351562 C 251.4375 89.488281 253.214844 90.675781 254.964844 91.910156 C 256.710938 93.144531 258.425781 94.425781 260.101562 95.753906 C 261.777344 97.082031 263.417969 98.457031 265.019531 99.875 C 266.621094 101.292969 268.183594 102.753906 269.707031 104.257812 C 271.226562 105.761719 272.707031 107.308594 274.144531 108.890625 C 275.578125 110.476562 276.972656 112.101562 278.320312 113.761719 C 279.667969 115.425781 280.96875 117.121094 282.222656 118.855469 C 283.476562 120.589844 284.683594 122.355469 285.839844 124.15625 C 287 125.953125 288.105469 127.785156 289.164062 129.644531 C 290.21875 131.503906 291.226562 133.394531 292.179688 135.308594 C 293.132812 137.222656 294.03125 139.164062 294.878906 141.128906 C 295.726562 143.09375 296.519531 145.082031 297.257812 147.089844 C 297.992188 149.097656 298.675781 151.125 299.300781 153.171875 C 299.929688 155.214844 300.5 157.277344 301.011719 159.355469 C 301.527344 161.433594 301.980469 163.523438 302.378906 165.625 C 302.777344 167.726562 303.121094 169.835938 303.402344 171.957031 C 303.683594 174.078125 303.910156 176.207031 304.074219 178.339844 C 304.242188 180.472656 304.347656 182.609375 304.398438 184.746094 C 304.445312 186.886719 304.433594 189.027344 304.367188 191.164062 C 304.296875 193.304688 304.171875 195.4375 303.984375 197.570312 C 303.796875 199.699219 303.554688 201.824219 303.25 203.945312 C 302.949219 206.0625 302.585938 208.171875 302.167969 210.269531 C 301.75 212.367188 301.273438 214.453125 300.742188 216.523438 C 300.210938 218.597656 299.621094 220.652344 298.972656 222.691406 C 298.328125 224.730469 297.628906 226.753906 296.871094 228.753906 C 296.113281 230.753906 295.304688 232.734375 294.4375 234.691406 C 293.570312 236.648438 292.652344 238.578125 291.683594 240.488281 C 290.710938 242.394531 289.6875 244.269531 288.613281 246.121094 C 287.539062 247.972656 286.414062 249.789062 285.238281 251.578125 C 284.066406 253.367188 282.84375 255.121094 281.570312 256.84375 C 280.300781 258.566406 278.984375 260.25 277.621094 261.898438 C 276.257812 263.550781 274.851562 265.160156 273.398438 266.730469 C 271.945312 268.304688 270.453125 269.832031 268.917969 271.324219 C 267.382812 272.8125 265.804688 274.261719 264.191406 275.664062 C 262.574219 277.066406 260.921875 278.425781 259.234375 279.738281 C 257.542969 281.050781 255.820312 282.316406 254.058594 283.53125 C 252.300781 284.75 250.507812 285.917969 248.6875 287.039062 C 246.863281 288.15625 245.007812 289.226562 243.128906 290.246094 C 241.246094 291.261719 239.335938 292.226562 237.402344 293.140625 C 235.464844 294.054688 233.507812 294.914062 231.527344 295.71875 C 229.542969 296.523438 227.539062 297.273438 225.515625 297.96875 C 223.492188 298.664062 221.453125 299.304688 219.394531 299.890625 C 217.335938 300.472656 215.261719 301 213.175781 301.46875 C 211.089844 301.9375 208.988281 302.351562 206.878906 302.703125 C 204.769531 303.058594 202.652344 303.355469 200.523438 303.59375 C 198.398438 303.832031 196.265625 304.011719 194.128906 304.132812 C 191.996094 304.253906 189.855469 304.316406 187.71875 304.320312 C 185.578125 304.324219 183.4375 304.269531 181.300781 304.15625 C 179.164062 304.042969 177.035156 303.871094 174.90625 303.636719 C 172.78125 303.40625 170.660156 303.117188 168.550781 302.773438 C 166.4375 302.425781 164.335938 302.019531 162.25 301.558594 C 160.160156 301.09375 158.085938 300.578125 156.023438 300 C 153.964844 299.425781 151.921875 298.792969 149.894531 298.101562 C 147.867188 297.414062 145.863281 296.671875 143.878906 295.871094 C 141.894531 295.074219 139.929688 294.222656 137.992188 293.316406 C 136.054688 292.410156 134.144531 291.449219 132.257812 290.441406 C 130.371094 289.429688 128.515625 288.367188 126.6875 287.253906 C 124.859375 286.140625 123.066406 284.976562 121.300781 283.765625 C 119.539062 282.554688 117.808594 281.296875 116.113281 279.988281 C 114.421875 278.683594 112.761719 277.328125 111.144531 275.933594 C 109.523438 274.535156 107.941406 273.09375 106.402344 271.609375 C 104.859375 270.125 103.363281 268.597656 101.902344 267.03125 C 100.445312 265.464844 99.035156 263.859375 97.664062 262.214844 C 96.296875 260.570312 94.972656 258.890625 93.695312 257.175781 C 92.417969 255.457031 91.191406 253.707031 90.007812 251.921875 C 88.828125 250.136719 87.699219 248.324219 86.617188 246.476562 C 85.535156 244.628906 84.507812 242.753906 83.527344 240.851562 C 82.550781 238.949219 81.625 237.019531 80.753906 235.066406 C 79.878906 233.113281 79.0625 231.136719 78.296875 229.136719 C 77.535156 227.140625 76.828125 225.121094 76.171875 223.085938 C 75.519531 221.046875 74.921875 218.992188 74.382812 216.921875 C 73.84375 214.851562 73.359375 212.769531 72.933594 210.671875 C 72.507812 208.574219 72.140625 206.46875 71.832031 204.351562 C 71.519531 202.234375 71.269531 200.109375 71.074219 197.980469 C 70.882812 195.847656 70.746094 193.714844 70.671875 191.574219 C 70.59375 189.4375 70.578125 187.296875 70.617188 185.160156 C 70.660156 183.019531 70.757812 180.882812 70.917969 178.75 C 71.074219 176.617188 71.292969 174.488281 71.566406 172.367188 C 71.84375 170.242188 72.175781 168.132812 72.566406 166.027344 C 72.957031 163.925781 73.40625 161.832031 73.914062 159.753906 C 74.417969 157.675781 74.980469 155.613281 75.601562 153.5625 C 76.21875 151.515625 76.894531 149.484375 77.625 147.476562 C 78.355469 145.464844 79.140625 143.472656 79.980469 141.507812 C 80.820312 139.539062 81.714844 137.59375 82.660156 135.675781 C 83.609375 133.757812 84.605469 131.867188 85.65625 130.003906 C 86.707031 128.136719 87.808594 126.304688 88.960938 124.5 C 90.113281 122.699219 91.3125 120.925781 92.558594 119.1875 C 93.808594 117.453125 95.101562 115.75 96.445312 114.082031 C 97.785156 112.417969 99.171875 110.789062 100.605469 109.195312 L 120.0625 126.730469 C 118.949219 127.960938 117.871094 129.226562 116.828125 130.519531 C 115.785156 131.8125 114.78125 133.132812 113.808594 134.480469 C 112.839844 135.828125 111.90625 137.203125 111.011719 138.601562 C 110.117188 140 109.257812 141.425781 108.441406 142.871094 C 107.625 144.316406 106.847656 145.785156 106.113281 147.273438 C 105.375 148.761719 104.679688 150.269531 104.027344 151.796875 C 103.375 153.324219 102.761719 154.871094 102.195312 156.429688 C 101.625 157.992188 101.101562 159.566406 100.617188 161.15625 C 100.136719 162.746094 99.699219 164.347656 99.304688 165.960938 C 98.910156 167.574219 98.558594 169.199219 98.253906 170.832031 C 97.949219 172.464844 97.691406 174.105469 97.476562 175.75 C 97.261719 177.398438 97.089844 179.050781 96.964844 180.707031 C 96.839844 182.363281 96.761719 184.023438 96.730469 185.683594 C 96.695312 187.34375 96.710938 189.003906 96.765625 190.664062 C 96.824219 192.324219 96.929688 193.980469 97.078125 195.636719 C 97.226562 197.292969 97.421875 198.941406 97.660156 200.585938 C 97.898438 202.226562 98.183594 203.863281 98.515625 205.492188 C 98.84375 207.121094 99.21875 208.738281 99.636719 210.347656 C 100.054688 211.953125 100.515625 213.546875 101.023438 215.128906 C 101.527344 216.714844 102.078125 218.28125 102.667969 219.832031 C 103.261719 221.382812 103.894531 222.917969 104.570312 224.4375 C 105.246094 225.953125 105.964844 227.453125 106.722656 228.929688 C 107.480469 230.40625 108.28125 231.863281 109.117188 233.296875 C 109.957031 234.730469 110.835938 236.140625 111.75 237.527344 C 112.664062 238.914062 113.621094 240.273438 114.609375 241.605469 C 115.601562 242.941406 116.625 244.246094 117.6875 245.523438 C 118.75 246.800781 119.847656 248.046875 120.976562 249.265625 C 122.109375 250.480469 123.273438 251.664062 124.46875 252.820312 C 125.664062 253.972656 126.890625 255.089844 128.148438 256.175781 C 129.40625 257.261719 130.691406 258.3125 132.007812 259.328125 C 133.320312 260.34375 134.664062 261.320312 136.03125 262.261719 C 137.402344 263.203125 138.792969 264.105469 140.210938 264.972656 C 141.628906 265.835938 143.070312 266.664062 144.535156 267.449219 C 146 268.234375 147.484375 268.980469 148.988281 269.683594 C 150.492188 270.386719 152.015625 271.050781 153.554688 271.671875 C 155.097656 272.289062 156.652344 272.867188 158.226562 273.402344 C 159.796875 273.9375 161.386719 274.429688 162.984375 274.878906 C 164.585938 275.324219 166.195312 275.730469 167.816406 276.089844 C 169.4375 276.449219 171.070312 276.765625 172.707031 277.035156 C 174.347656 277.304688 175.992188 277.527344 177.644531 277.707031 C 179.296875 277.886719 180.949219 278.023438 182.609375 278.109375 C 184.269531 278.199219 185.929688 278.242188 187.589844 278.238281 C 189.25 278.238281 190.910156 278.191406 192.570312 278.097656 C 194.226562 278.003906 195.882812 277.863281 197.53125 277.679688 C 199.183594 277.496094 200.828125 277.265625 202.46875 276.988281 C 204.105469 276.714844 205.734375 276.394531 207.355469 276.03125 C 208.976562 275.667969 210.585938 275.257812 212.183594 274.804688 C 213.78125 274.351562 215.367188 273.855469 216.9375 273.316406 C 218.507812 272.777344 220.0625 272.195312 221.601562 271.570312 C 223.140625 270.945312 224.664062 270.277344 226.164062 269.570312 C 227.667969 268.859375 229.148438 268.113281 230.609375 267.320312 C 232.074219 266.53125 233.511719 265.703125 234.925781 264.832031 C 236.34375 263.964844 237.734375 263.058594 239.097656 262.113281 C 240.464844 261.164062 241.804688 260.183594 243.117188 259.164062 C 244.429688 258.144531 245.710938 257.089844 246.964844 256.003906 C 248.21875 254.914062 249.441406 253.789062 250.636719 252.632812 C 251.828125 251.476562 252.988281 250.289062 254.113281 249.066406 C 255.242188 247.847656 256.335938 246.597656 257.394531 245.316406 C 258.453125 244.035156 259.472656 242.730469 260.460938 241.390625 C 261.449219 240.054688 262.398438 238.691406 263.308594 237.304688 C 264.21875 235.917969 265.09375 234.503906 265.925781 233.066406 C 266.761719 231.628906 267.554688 230.171875 268.308594 228.691406 C 269.0625 227.210938 269.777344 225.710938 270.449219 224.191406 C 271.121094 222.671875 271.75 221.136719 272.335938 219.582031 C 272.925781 218.03125 273.46875 216.460938 273.96875 214.875 C 274.472656 213.292969 274.929688 211.695312 275.34375 210.085938 C 275.757812 208.480469 276.125 206.859375 276.449219 205.230469 C 276.773438 203.601562 277.054688 201.964844 277.289062 200.320312 C 277.523438 198.675781 277.714844 197.027344 277.859375 195.371094 C 278.003906 193.714844 278.101562 192.058594 278.152344 190.398438 C 278.207031 188.738281 278.214844 187.078125 278.175781 185.417969 C 278.136719 183.753906 278.054688 182.097656 277.925781 180.441406 C 277.796875 178.785156 277.621094 177.132812 277.402344 175.488281 C 277.183594 173.839844 276.917969 172.203125 276.609375 170.570312 C 276.296875 168.9375 275.941406 167.316406 275.542969 165.703125 C 275.144531 164.089844 274.703125 162.488281 274.214844 160.902344 C 273.730469 159.3125 273.199219 157.738281 272.625 156.179688 C 272.050781 154.621094 271.4375 153.078125 270.777344 151.554688 C 270.121094 150.027344 269.421875 148.523438 268.679688 147.035156 C 267.941406 145.546875 267.160156 144.082031 266.335938 142.636719 C 265.515625 141.195312 264.65625 139.773438 263.757812 138.378906 C 262.859375 136.980469 261.921875 135.609375 260.945312 134.265625 C 259.972656 132.917969 258.960938 131.601562 257.914062 130.3125 C 256.867188 129.023438 255.785156 127.761719 254.671875 126.53125 C 253.554688 125.300781 252.40625 124.101562 251.222656 122.933594 C 250.042969 121.765625 248.828125 120.632812 247.585938 119.53125 C 246.339844 118.429688 245.066406 117.367188 243.765625 116.335938 C 242.460938 115.304688 241.132812 114.308594 239.773438 113.351562 C 238.417969 112.394531 237.035156 111.472656 235.625 110.59375 C 234.21875 109.710938 232.789062 108.867188 231.332031 108.066406 C 229.878906 107.261719 228.40625 106.5 226.910156 105.777344 C 225.414062 105.054688 223.898438 104.375 222.363281 103.734375 C 220.832031 103.097656 219.28125 102.5 217.714844 101.945312 C 216.148438 101.390625 214.570312 100.882812 212.976562 100.414062 C 211.382812 99.945312 209.773438 99.523438 208.15625 99.144531 C 206.539062 98.765625 204.914062 98.429688 203.277344 98.140625 Z M 207.964844 72.292969" fill-rule="evenodd"/></g></g></g><g clip-path="url(#g)"><g clip-path="url(#h)"><g clip-path="url(#i)"><path fill="#C9E265" d="M 249.46875 216.503906 C 248.925781 217.664062 248.351562 218.804688 247.746094 219.929688 C 247.140625 221.058594 246.503906 222.164062 245.835938 223.257812 C 245.167969 224.347656 244.46875 225.417969 243.742188 226.46875 C 243.011719 227.519531 242.253906 228.550781 241.46875 229.558594 C 240.683594 230.566406 239.871094 231.554688 239.03125 232.515625 C 238.1875 233.480469 237.320312 234.417969 236.429688 235.335938 C 235.535156 236.25 234.617188 237.136719 233.671875 238 C 232.730469 238.863281 231.761719 239.703125 230.773438 240.511719 C 229.78125 241.320312 228.769531 242.101562 227.738281 242.851562 C 226.703125 243.605469 225.648438 244.328125 224.574219 245.023438 C 223.5 245.714844 222.40625 246.378906 221.296875 247.011719 C 220.183594 247.644531 219.054688 248.242188 217.910156 248.8125 C 216.765625 249.382812 215.605469 249.917969 214.429688 250.421875 C 213.253906 250.925781 212.066406 251.398438 210.863281 251.835938 C 209.664062 252.269531 208.449219 252.675781 207.226562 253.042969 C 206 253.414062 204.769531 253.75 203.523438 254.050781 C 202.28125 254.351562 201.03125 254.613281 199.773438 254.84375 C 198.515625 255.074219 197.253906 255.269531 195.984375 255.429688 C 194.714844 255.589844 193.441406 255.714844 192.167969 255.800781 C 190.890625 255.890625 189.613281 255.941406 188.335938 255.960938 C 187.054688 255.976562 185.777344 255.957031 184.5 255.902344 C 183.222656 255.847656 181.949219 255.757812 180.675781 255.632812 C 179.402344 255.503906 178.136719 255.34375 176.871094 255.144531 C 175.609375 254.949219 174.351562 254.714844 173.101562 254.449219 C 171.851562 254.179688 170.609375 253.878906 169.375 253.542969 C 168.140625 253.203125 166.917969 252.832031 165.707031 252.425781 C 164.492188 252.019531 163.292969 251.582031 162.105469 251.109375 C 160.917969 250.636719 159.742188 250.128906 158.582031 249.589844 C 157.421875 249.050781 156.28125 248.480469 155.152344 247.878906 C 154.023438 247.277344 152.914062 246.640625 151.820312 245.976562 C 150.730469 245.3125 149.65625 244.617188 148.601562 243.890625 C 147.550781 243.167969 146.519531 242.414062 145.507812 241.628906 C 144.496094 240.847656 143.507812 240.035156 142.542969 239.199219 C 141.574219 238.359375 140.632812 237.496094 139.71875 236.605469 C 138.800781 235.714844 137.910156 234.796875 137.042969 233.855469 C 136.175781 232.914062 135.335938 231.949219 134.527344 230.960938 C 133.714844 229.976562 132.929688 228.964844 132.175781 227.933594 C 131.417969 226.902344 130.695312 225.847656 129.996094 224.777344 C 129.300781 223.703125 128.636719 222.613281 128 221.503906 C 127.363281 220.394531 126.761719 219.265625 126.1875 218.121094 C 125.617188 216.980469 125.078125 215.820312 124.570312 214.648438 C 124.0625 213.472656 123.589844 212.285156 123.148438 211.085938 C 122.707031 209.886719 122.300781 208.671875 121.925781 207.449219 C 121.554688 206.226562 121.214844 204.992188 120.910156 203.75 C 120.609375 202.511719 120.339844 201.261719 120.105469 200.003906 C 119.871094 198.746094 119.671875 197.484375 119.511719 196.214844 C 119.347656 194.945312 119.21875 193.675781 119.128906 192.398438 C 119.035156 191.125 118.980469 189.847656 118.960938 188.566406 C 118.9375 187.289062 118.953125 186.011719 119.003906 184.734375 C 119.058594 183.457031 119.144531 182.179688 119.265625 180.90625 C 119.390625 179.632812 119.546875 178.367188 119.742188 177.101562 C 119.933594 175.839844 120.164062 174.582031 120.429688 173.328125 C 120.691406 172.078125 120.992188 170.835938 121.324219 169.601562 C 121.660156 168.367188 122.027344 167.140625 122.429688 165.929688 C 122.832031 164.714844 123.269531 163.511719 123.738281 162.324219 C 124.207031 161.132812 124.710938 159.960938 125.246094 158.796875 C 125.78125 157.636719 126.347656 156.492188 126.949219 155.363281 C 127.546875 154.234375 128.179688 153.121094 128.839844 152.027344 C 129.503906 150.933594 130.195312 149.859375 130.917969 148.804688 C 131.640625 147.746094 132.390625 146.714844 133.171875 145.699219 C 133.953125 144.6875 134.757812 143.695312 135.59375 142.726562 C 136.429688 141.761719 137.292969 140.816406 138.179688 139.898438 C 139.070312 138.976562 139.984375 138.082031 140.921875 137.214844 C 141.859375 136.347656 142.824219 135.503906 143.808594 134.691406 C 144.792969 133.875 145.800781 133.089844 146.832031 132.332031 C 147.859375 131.570312 148.910156 130.84375 149.980469 130.144531 C 151.050781 129.445312 152.140625 128.777344 153.25 128.136719 C 154.359375 127.5 155.484375 126.890625 156.625 126.316406 C 157.765625 125.742188 158.925781 125.199219 160.097656 124.6875 C 161.269531 124.179688 162.453125 123.699219 163.652344 123.257812 C 164.851562 122.8125 166.0625 122.402344 167.285156 122.027344 C 168.507812 121.648438 169.738281 121.308594 170.980469 121 C 172.222656 120.695312 173.472656 120.421875 174.726562 120.183594 C 175.984375 119.945312 177.246094 119.746094 178.515625 119.578125 C 179.78125 119.410156 181.054688 119.28125 182.328125 119.183594 C 183.605469 119.089844 184.882812 119.03125 186.160156 119.007812 C 187.4375 118.984375 188.714844 118.996094 189.996094 119.042969 C 191.273438 119.089844 192.546875 119.171875 193.820312 119.292969 C 195.09375 119.410156 196.363281 119.566406 197.628906 119.757812 C 198.890625 119.949219 200.152344 120.171875 201.402344 120.433594 C 202.65625 120.695312 203.898438 120.988281 205.132812 121.320312 C 206.367188 121.652344 207.59375 122.015625 208.808594 122.414062 C 210.023438 122.8125 211.226562 123.246094 212.417969 123.714844 C 213.609375 124.179688 214.785156 124.679688 215.945312 125.210938 C 217.109375 125.742188 218.257812 126.308594 219.386719 126.90625 C 220.519531 127.5 221.632812 128.128906 222.726562 128.789062 C 223.824219 129.445312 224.902344 130.136719 225.957031 130.855469 C 227.015625 131.574219 228.050781 132.324219 229.066406 133.101562 C 230.082031 133.878906 231.074219 134.683594 232.046875 135.515625 C 233.015625 136.347656 233.960938 137.207031 234.882812 138.09375 C 235.804688 138.980469 236.703125 139.890625 237.574219 140.828125 C 238.445312 141.761719 239.289062 142.722656 240.105469 143.707031 C 240.925781 144.691406 241.714844 145.695312 242.472656 146.722656 C 243.234375 147.75 243.964844 148.800781 244.667969 149.867188 C 245.371094 150.9375 246.042969 152.023438 246.683594 153.128906 C 247.324219 154.238281 247.9375 155.359375 248.515625 156.5 L 227.410156 167.222656 C 227.03125 166.480469 226.632812 165.746094 226.210938 165.023438 C 225.792969 164.300781 225.351562 163.589844 224.890625 162.890625 C 224.433594 162.195312 223.953125 161.507812 223.457031 160.835938 C 222.957031 160.167969 222.441406 159.511719 221.90625 158.867188 C 221.371094 158.226562 220.816406 157.597656 220.246094 156.988281 C 219.675781 156.375 219.089844 155.78125 218.488281 155.203125 C 217.882812 154.625 217.265625 154.0625 216.628906 153.519531 C 215.996094 152.976562 215.34375 152.449219 214.679688 151.941406 C 214.015625 151.433594 213.339844 150.945312 212.648438 150.476562 C 211.957031 150.007812 211.25 149.558594 210.535156 149.128906 C 209.816406 148.699219 209.089844 148.289062 208.347656 147.898438 C 207.609375 147.507812 206.859375 147.140625 206.097656 146.792969 C 205.339844 146.445312 204.570312 146.121094 203.789062 145.816406 C 203.011719 145.511719 202.226562 145.230469 201.429688 144.96875 C 200.636719 144.710938 199.835938 144.472656 199.027344 144.257812 C 198.21875 144.042969 197.40625 143.851562 196.589844 143.679688 C 195.769531 143.511719 194.945312 143.363281 194.121094 143.242188 C 193.292969 143.117188 192.464844 143.015625 191.632812 142.9375 C 190.800781 142.863281 189.964844 142.808594 189.128906 142.777344 C 188.292969 142.746094 187.460938 142.742188 186.625 142.757812 C 185.789062 142.773438 184.953125 142.8125 184.121094 142.875 C 183.285156 142.9375 182.453125 143.023438 181.625 143.136719 C 180.796875 143.246094 179.972656 143.378906 179.152344 143.53125 C 178.328125 143.6875 177.511719 143.867188 176.703125 144.070312 C 175.890625 144.269531 175.085938 144.496094 174.285156 144.742188 C 173.488281 144.988281 172.695312 145.257812 171.914062 145.546875 C 171.128906 145.839844 170.355469 146.152344 169.589844 146.484375 C 168.824219 146.820312 168.066406 147.175781 167.320312 147.550781 C 166.574219 147.929688 165.839844 148.324219 165.113281 148.742188 C 164.390625 149.160156 163.679688 149.597656 162.980469 150.058594 C 162.28125 150.515625 161.59375 150.992188 160.921875 151.488281 C 160.25 151.984375 159.589844 152.5 158.945312 153.03125 C 158.300781 153.566406 157.671875 154.113281 157.058594 154.683594 C 156.445312 155.25 155.851562 155.835938 155.269531 156.4375 C 154.691406 157.039062 154.125 157.65625 153.582031 158.289062 C 153.035156 158.921875 152.507812 159.570312 151.996094 160.234375 C 151.488281 160.898438 150.996094 161.574219 150.527344 162.261719 C 150.054688 162.953125 149.601562 163.65625 149.171875 164.371094 C 148.738281 165.085938 148.324219 165.8125 147.933594 166.554688 C 147.542969 167.292969 147.171875 168.039062 146.824219 168.800781 C 146.472656 169.558594 146.144531 170.328125 145.839844 171.105469 C 145.53125 171.882812 145.246094 172.667969 144.984375 173.460938 C 144.722656 174.253906 144.480469 175.054688 144.265625 175.863281 C 144.046875 176.671875 143.851562 177.484375 143.679688 178.300781 C 143.507812 179.117188 143.359375 179.941406 143.230469 180.765625 C 143.105469 181.59375 143.003906 182.421875 142.921875 183.253906 C 142.84375 184.085938 142.785156 184.921875 142.753906 185.757812 C 142.71875 186.589844 142.710938 187.425781 142.722656 188.261719 C 142.738281 189.097656 142.773438 189.933594 142.835938 190.765625 C 142.894531 191.601562 142.980469 192.433594 143.085938 193.261719 C 143.195312 194.089844 143.324219 194.914062 143.476562 195.738281 C 143.628906 196.558594 143.804688 197.375 144.003906 198.1875 C 144.203125 199 144.425781 199.804688 144.671875 200.605469 C 144.914062 201.40625 145.179688 202.195312 145.46875 202.980469 C 145.757812 203.765625 146.066406 204.542969 146.398438 205.308594 C 146.730469 206.074219 147.085938 206.832031 147.457031 207.582031 C 147.832031 208.328125 148.226562 209.066406 148.644531 209.789062 C 149.058594 210.515625 149.496094 211.226562 149.949219 211.929688 C 150.40625 212.628906 150.878906 213.316406 151.375 213.992188 C 151.867188 214.667969 152.382812 215.328125 152.910156 215.972656 C 153.441406 216.617188 153.992188 217.25 154.558594 217.863281 C 155.125 218.476562 155.707031 219.078125 156.308594 219.660156 C 156.90625 220.242188 157.523438 220.804688 158.152344 221.355469 C 158.785156 221.902344 159.429688 222.429688 160.09375 222.941406 C 160.753906 223.453125 161.429688 223.945312 162.117188 224.421875 C 162.804688 224.894531 163.507812 225.347656 164.222656 225.785156 C 164.933594 226.21875 165.660156 226.632812 166.398438 227.027344 C 167.136719 227.421875 167.882812 227.792969 168.640625 228.144531 C 169.398438 228.496094 170.167969 228.828125 170.945312 229.136719 C 171.722656 229.445312 172.503906 229.734375 173.296875 229.996094 C 174.089844 230.261719 174.890625 230.503906 175.695312 230.726562 C 176.503906 230.945312 177.316406 231.144531 178.132812 231.320312 C 178.949219 231.492188 179.773438 231.644531 180.597656 231.773438 C 181.425781 231.902344 182.253906 232.007812 183.085938 232.089844 C 183.917969 232.171875 184.75 232.230469 185.585938 232.269531 C 186.421875 232.304688 187.257812 232.316406 188.09375 232.304688 C 188.925781 232.292969 189.761719 232.257812 190.597656 232.203125 C 191.429688 232.144531 192.261719 232.0625 193.089844 231.957031 C 193.921875 231.855469 194.746094 231.726562 195.570312 231.574219 C 196.390625 231.425781 197.207031 231.25 198.019531 231.054688 C 198.832031 230.859375 199.640625 230.640625 200.441406 230.398438 C 201.242188 230.15625 202.035156 229.890625 202.820312 229.605469 C 203.605469 229.320312 204.382812 229.011719 205.148438 228.683594 C 205.917969 228.355469 206.675781 228.003906 207.425781 227.632812 C 208.171875 227.257812 208.910156 226.867188 209.636719 226.453125 C 210.363281 226.039062 211.078125 225.605469 211.78125 225.152344 C 212.484375 224.699219 213.171875 224.226562 213.847656 223.734375 C 214.523438 223.242188 215.1875 222.734375 215.832031 222.203125 C 216.480469 221.675781 217.113281 221.128906 217.730469 220.5625 C 218.347656 220 218.945312 219.417969 219.53125 218.820312 C 220.113281 218.222656 220.683594 217.609375 221.230469 216.980469 C 221.78125 216.351562 222.3125 215.703125 222.828125 215.046875 C 223.339844 214.386719 223.835938 213.710938 224.3125 213.027344 C 224.785156 212.339844 225.242188 211.636719 225.679688 210.925781 C 226.117188 210.210938 226.535156 209.488281 226.929688 208.753906 C 227.324219 208.015625 227.699219 207.269531 228.054688 206.511719 Z M 249.46875 216.503906" fill-rule="evenodd"/></g></g></g></svg>