<svg xmlns="http://www.w3.org/2000/svg" width="300" viewBox="0 0 300 75" height="75" version="1.0"><defs><clipPath id="a"><path d="M 2 13 L 51 13 L 51 62 L 2 62 Z M 2 13"/></clipPath><clipPath id="b"><path d="M 59.316406 43.371094 L 20.574219 70.421875 L -6.476562 31.679688 L 32.265625 4.628906 Z M 59.316406 43.371094"/></clipPath><clipPath id="c"><path d="M 59.316406 43.371094 L 20.574219 70.421875 L -6.476562 31.679688 L 32.265625 4.628906 Z M 59.316406 43.371094"/></clipPath><clipPath id="d"><path d="M 9 21 L 44 21 L 44 55 L 9 55 Z M 9 21"/></clipPath><clipPath id="e"><path d="M 59.316406 43.371094 L 20.574219 70.421875 L -6.476562 31.679688 L 32.265625 4.628906 Z M 59.316406 43.371094"/></clipPath><clipPath id="f"><path d="M 59.316406 43.371094 L 20.574219 70.421875 L -6.476562 31.679688 L 32.265625 4.628906 Z M 59.316406 43.371094"/></clipPath><clipPath id="g"><path d="M 16 27 L 36 27 L 36 48 L 16 48 Z M 16 27"/></clipPath><clipPath id="h"><path d="M 59.316406 43.371094 L 20.574219 70.421875 L -6.476562 31.679688 L 32.265625 4.628906 Z M 59.316406 43.371094"/></clipPath><clipPath id="i"><path d="M 59.316406 43.371094 L 20.574219 70.421875 L -6.476562 31.679688 L 32.265625 4.628906 Z M 59.316406 43.371094"/></clipPath></defs><g clip-path="url(#a)"><g clip-path="url(#b)"><g clip-path="url(#c)"><path fill="#5E17EB" d="M 7.046875 51.046875 C 6.558594 50.34375 6.105469 49.617188 5.695312 48.867188 C 5.285156 48.113281 4.914062 47.34375 4.585938 46.550781 C 4.261719 45.757812 3.976562 44.953125 3.738281 44.128906 C 3.5 43.304688 3.304688 42.472656 3.15625 41.628906 C 3.007812 40.785156 2.90625 39.9375 2.847656 39.082031 C 2.792969 38.226562 2.78125 37.371094 2.820312 36.515625 C 2.855469 35.660156 2.9375 34.808594 3.070312 33.960938 C 3.199219 33.113281 3.371094 32.277344 3.59375 31.449219 C 3.8125 30.621094 4.078125 29.804688 4.386719 29.007812 C 4.695312 28.207031 5.046875 27.429688 5.441406 26.667969 C 5.835938 25.90625 6.269531 25.167969 6.746094 24.457031 C 7.21875 23.742188 7.730469 23.054688 8.28125 22.398438 C 8.828125 21.738281 9.410156 21.113281 10.027344 20.519531 C 10.644531 19.925781 11.292969 19.363281 11.96875 18.839844 C 12.648438 18.316406 13.351562 17.832031 14.082031 17.382812 C 14.8125 16.9375 15.566406 16.53125 16.339844 16.164062 C 17.117188 15.796875 17.910156 15.476562 18.71875 15.195312 C 19.527344 14.917969 20.351562 14.683594 21.1875 14.492188 C 22.023438 14.304688 22.867188 14.160156 23.71875 14.0625 C 24.570312 13.964844 25.421875 13.910156 26.28125 13.90625 C 27.136719 13.902344 27.992188 13.941406 28.84375 14.03125 C 29.695312 14.117188 30.539062 14.253906 31.378906 14.433594 C 32.214844 14.613281 33.042969 14.835938 33.855469 15.105469 C 34.667969 15.375 35.464844 15.691406 36.242188 16.046875 C 37.023438 16.402344 37.78125 16.800781 38.515625 17.238281 C 39.253906 17.675781 39.960938 18.15625 40.644531 18.671875 C 41.332031 19.1875 41.984375 19.738281 42.609375 20.324219 C 43.230469 20.914062 43.824219 21.53125 44.378906 22.183594 C 44.9375 22.835938 45.457031 23.515625 45.9375 24.222656 C 46.421875 24.929688 46.863281 25.664062 47.265625 26.417969 C 47.667969 27.175781 48.03125 27.949219 48.347656 28.746094 C 48.667969 29.539062 48.941406 30.351562 49.171875 31.175781 C 49.402344 32 49.585938 32.835938 49.726562 33.683594 C 49.867188 34.527344 49.960938 35.378906 50.007812 36.234375 C 50.054688 37.089844 50.054688 37.945312 50.007812 38.800781 C 49.960938 39.65625 49.871094 40.507812 49.730469 41.351562 C 49.59375 42.199219 49.410156 43.03125 49.179688 43.859375 C 48.949219 44.683594 48.675781 45.496094 48.359375 46.289062 C 48.039062 47.085938 47.679688 47.863281 47.277344 48.617188 C 46.875 49.375 46.433594 50.109375 45.953125 50.816406 C 45.46875 51.523438 44.949219 52.203125 44.394531 52.855469 C 43.839844 53.507812 43.25 54.128906 42.625 54.714844 C 42.003906 55.304688 41.347656 55.855469 40.664062 56.375 C 39.980469 56.890625 39.273438 57.367188 38.535156 57.808594 C 37.800781 58.246094 37.042969 58.644531 36.265625 59.003906 C 35.484375 59.359375 34.691406 59.671875 33.878906 59.945312 C 33.0625 60.214844 32.238281 60.441406 31.402344 60.621094 C 30.5625 60.800781 29.71875 60.9375 28.867188 61.023438 L 28.457031 57.082031 C 29.164062 57.003906 29.867188 56.894531 30.566406 56.742188 C 31.261719 56.589844 31.949219 56.402344 32.625 56.175781 C 33.300781 55.949219 33.964844 55.6875 34.613281 55.390625 C 35.261719 55.089844 35.890625 54.757812 36.503906 54.394531 C 37.117188 54.027344 37.707031 53.628906 38.273438 53.195312 C 38.84375 52.765625 39.386719 52.304688 39.90625 51.816406 C 40.421875 51.324219 40.914062 50.808594 41.375 50.265625 C 41.839844 49.722656 42.269531 49.15625 42.671875 48.566406 C 43.070312 47.976562 43.4375 47.363281 43.773438 46.734375 C 44.105469 46.105469 44.40625 45.457031 44.667969 44.796875 C 44.933594 44.132812 45.160156 43.457031 45.351562 42.769531 C 45.542969 42.082031 45.695312 41.386719 45.808594 40.683594 C 45.921875 39.976562 46 39.269531 46.039062 38.558594 C 46.074219 37.84375 46.074219 37.132812 46.035156 36.421875 C 45.992188 35.707031 45.914062 35 45.796875 34.296875 C 45.683594 33.59375 45.527344 32.898438 45.335938 32.210938 C 45.140625 31.523438 44.914062 30.847656 44.648438 30.1875 C 44.378906 29.527344 44.078125 28.878906 43.742188 28.25 C 43.40625 27.621094 43.039062 27.011719 42.636719 26.421875 C 42.234375 25.835938 41.800781 25.269531 41.335938 24.726562 C 40.871094 24.183594 40.378906 23.671875 39.859375 23.183594 C 39.339844 22.695312 38.792969 22.234375 38.222656 21.804688 C 37.65625 21.375 37.0625 20.980469 36.449219 20.617188 C 35.835938 20.25 35.207031 19.921875 34.554688 19.625 C 33.90625 19.328125 33.246094 19.070312 32.566406 18.84375 C 31.890625 18.621094 31.203125 18.433594 30.503906 18.285156 C 29.808594 18.136719 29.101562 18.027344 28.394531 17.953125 C 27.683594 17.882812 26.972656 17.847656 26.257812 17.851562 C 25.546875 17.855469 24.835938 17.902344 24.125 17.984375 C 23.417969 18.066406 22.714844 18.1875 22.019531 18.34375 C 21.324219 18.503906 20.640625 18.699219 19.964844 18.933594 C 19.292969 19.167969 18.632812 19.433594 17.988281 19.742188 C 17.34375 20.046875 16.714844 20.382812 16.109375 20.757812 C 15.5 21.132812 14.914062 21.535156 14.351562 21.972656 C 13.785156 22.410156 13.246094 22.875 12.734375 23.371094 C 12.222656 23.867188 11.734375 24.390625 11.28125 24.9375 C 10.824219 25.484375 10.398438 26.058594 10.003906 26.652344 C 9.609375 27.246094 9.25 27.859375 8.921875 28.496094 C 8.59375 29.128906 8.300781 29.777344 8.046875 30.445312 C 7.789062 31.109375 7.570312 31.785156 7.386719 32.476562 C 7.203125 33.164062 7.058594 33.863281 6.949219 34.566406 C 6.84375 35.273438 6.777344 35.984375 6.746094 36.695312 C 6.714844 37.40625 6.722656 38.121094 6.773438 38.832031 C 6.820312 39.542969 6.90625 40.25 7.03125 40.953125 C 7.15625 41.65625 7.316406 42.347656 7.515625 43.035156 C 7.71875 43.71875 7.953125 44.390625 8.226562 45.050781 C 8.5 45.707031 8.808594 46.351562 9.152344 46.976562 C 9.492188 47.601562 9.871094 48.207031 10.277344 48.792969 Z M 7.046875 51.046875" fill-rule="evenodd"/></g></g></g><g clip-path="url(#d)"><g clip-path="url(#e)"><g clip-path="url(#f)"><path fill="#66F" d="M 29.363281 21.03125 C 29.96875 21.140625 30.566406 21.28125 31.152344 21.453125 C 31.742188 21.625 32.316406 21.828125 32.882812 22.066406 C 33.449219 22.300781 34 22.570312 34.539062 22.863281 C 35.074219 23.160156 35.59375 23.488281 36.09375 23.839844 C 36.59375 24.195312 37.074219 24.574219 37.535156 24.980469 C 37.992188 25.386719 38.429688 25.816406 38.839844 26.273438 C 39.25 26.726562 39.636719 27.203125 39.996094 27.699219 C 40.355469 28.195312 40.6875 28.710938 40.992188 29.242188 C 41.292969 29.777344 41.566406 30.324219 41.808594 30.886719 C 42.050781 31.453125 42.261719 32.027344 42.441406 32.613281 C 42.621094 33.199219 42.769531 33.792969 42.882812 34.394531 C 42.996094 34.996094 43.078125 35.605469 43.125 36.214844 C 43.171875 36.828125 43.1875 37.441406 43.167969 38.050781 C 43.148438 38.664062 43.09375 39.273438 43.007812 39.882812 C 42.921875 40.488281 42.800781 41.089844 42.648438 41.683594 C 42.496094 42.277344 42.3125 42.859375 42.09375 43.433594 C 41.878906 44.007812 41.628906 44.566406 41.351562 45.113281 C 41.074219 45.660156 40.765625 46.191406 40.429688 46.703125 C 40.09375 47.214844 39.730469 47.707031 39.339844 48.179688 C 38.945312 48.652344 38.53125 49.101562 38.089844 49.53125 C 37.652344 49.957031 37.1875 50.359375 36.707031 50.734375 C 36.222656 51.109375 35.71875 51.460938 35.195312 51.78125 C 34.671875 52.101562 34.132812 52.390625 33.578125 52.652344 C 33.023438 52.914062 32.457031 53.144531 31.878906 53.34375 C 31.296875 53.542969 30.707031 53.710938 30.109375 53.847656 C 29.511719 53.980469 28.910156 54.082031 28.300781 54.148438 C 27.691406 54.21875 27.078125 54.253906 26.464844 54.253906 C 25.851562 54.253906 25.242188 54.222656 24.632812 54.15625 C 24.023438 54.089844 23.417969 53.992188 22.820312 53.859375 C 22.21875 53.726562 21.628906 53.5625 21.050781 53.363281 C 20.46875 53.167969 19.902344 52.9375 19.347656 52.679688 C 18.789062 52.417969 18.25 52.128906 17.726562 51.8125 C 17.203125 51.492188 16.699219 51.144531 16.214844 50.769531 C 15.726562 50.394531 15.265625 49.996094 14.824219 49.570312 C 14.382812 49.144531 13.964844 48.695312 13.570312 48.226562 C 13.179688 47.753906 12.8125 47.261719 12.476562 46.753906 C 12.136719 46.242188 11.828125 45.710938 11.546875 45.167969 C 11.265625 44.621094 11.015625 44.0625 10.796875 43.488281 C 10.578125 42.917969 10.394531 42.332031 10.238281 41.742188 C 10.082031 41.148438 9.960938 40.546875 9.871094 39.941406 C 9.785156 39.332031 9.726562 38.722656 9.707031 38.109375 C 9.683594 37.5 9.695312 36.886719 9.742188 36.273438 C 9.789062 35.664062 9.867188 35.054688 9.976562 34.453125 C 10.089844 33.851562 10.234375 33.253906 10.414062 32.667969 C 10.589844 32.082031 10.800781 31.507812 11.039062 30.941406 C 11.28125 30.378906 11.550781 29.828125 11.851562 29.296875 C 12.152344 28.761719 12.484375 28.246094 12.839844 27.746094 C 13.199219 27.25 13.582031 26.773438 13.992188 26.316406 L 16.777344 28.828125 C 16.460938 29.179688 16.160156 29.550781 15.882812 29.9375 C 15.605469 30.324219 15.347656 30.722656 15.113281 31.136719 C 14.878906 31.550781 14.671875 31.976562 14.484375 32.414062 C 14.296875 32.855469 14.132812 33.300781 13.996094 33.757812 C 13.855469 34.210938 13.742188 34.671875 13.65625 35.140625 C 13.570312 35.609375 13.507812 36.082031 13.472656 36.554688 C 13.4375 37.03125 13.425781 37.503906 13.441406 37.980469 C 13.460938 38.457031 13.503906 38.929688 13.570312 39.402344 C 13.640625 39.871094 13.734375 40.339844 13.855469 40.800781 C 13.972656 41.257812 14.117188 41.710938 14.289062 42.15625 C 14.457031 42.601562 14.652344 43.035156 14.867188 43.460938 C 15.085938 43.882812 15.324219 44.292969 15.589844 44.691406 C 15.851562 45.089844 16.132812 45.46875 16.4375 45.835938 C 16.742188 46.203125 17.066406 46.550781 17.410156 46.878906 C 17.753906 47.210938 18.113281 47.519531 18.488281 47.8125 C 18.867188 48.101562 19.257812 48.371094 19.664062 48.621094 C 20.070312 48.867188 20.488281 49.09375 20.921875 49.296875 C 21.351562 49.496094 21.792969 49.675781 22.242188 49.828125 C 22.695312 49.980469 23.152344 50.109375 23.617188 50.210938 C 24.082031 50.316406 24.550781 50.390625 25.023438 50.445312 C 25.496094 50.496094 25.972656 50.519531 26.445312 50.519531 C 26.921875 50.519531 27.398438 50.492188 27.871094 50.441406 C 28.34375 50.386719 28.8125 50.308594 29.277344 50.203125 C 29.742188 50.097656 30.199219 49.96875 30.648438 49.816406 C 31.097656 49.660156 31.539062 49.480469 31.96875 49.277344 C 32.402344 49.074219 32.820312 48.847656 33.226562 48.601562 C 33.628906 48.351562 34.023438 48.082031 34.398438 47.789062 C 34.773438 47.496094 35.132812 47.183594 35.472656 46.855469 C 35.816406 46.523438 36.136719 46.171875 36.441406 45.804688 C 36.746094 45.4375 37.027344 45.058594 37.289062 44.660156 C 37.550781 44.261719 37.789062 43.851562 38.003906 43.425781 C 38.222656 43 38.414062 42.566406 38.582031 42.121094 C 38.75 41.675781 38.894531 41.222656 39.011719 40.761719 C 39.128906 40.300781 39.222656 39.835938 39.289062 39.363281 C 39.359375 38.890625 39.398438 38.417969 39.414062 37.941406 C 39.429688 37.46875 39.417969 36.992188 39.382812 36.515625 C 39.34375 36.042969 39.28125 35.570312 39.191406 35.105469 C 39.105469 34.636719 38.988281 34.175781 38.851562 33.71875 C 38.710938 33.265625 38.546875 32.816406 38.359375 32.382812 C 38.167969 31.945312 37.957031 31.519531 37.722656 31.105469 C 37.488281 30.691406 37.230469 30.289062 36.949219 29.90625 C 36.671875 29.519531 36.371094 29.152344 36.050781 28.796875 C 35.730469 28.445312 35.394531 28.113281 35.039062 27.796875 C 34.679688 27.480469 34.308594 27.1875 33.917969 26.910156 C 33.53125 26.636719 33.128906 26.382812 32.710938 26.152344 C 32.292969 25.925781 31.867188 25.71875 31.425781 25.535156 C 30.988281 25.351562 30.539062 25.191406 30.082031 25.058594 C 29.625 24.925781 29.164062 24.816406 28.695312 24.734375 Z M 29.363281 21.03125" fill-rule="evenodd"/></g></g></g><g clip-path="url(#g)"><g clip-path="url(#h)"><g clip-path="url(#i)"><path fill="#C9E265" d="M 35.308594 41.679688 C 35.152344 42.011719 34.976562 42.335938 34.785156 42.648438 C 34.59375 42.960938 34.386719 43.261719 34.160156 43.550781 C 33.9375 43.839844 33.695312 44.113281 33.441406 44.375 C 33.183594 44.640625 32.914062 44.886719 32.628906 45.117188 C 32.347656 45.351562 32.050781 45.566406 31.742188 45.765625 C 31.433594 45.960938 31.117188 46.144531 30.789062 46.304688 C 30.460938 46.46875 30.125 46.613281 29.78125 46.738281 C 29.433594 46.863281 29.085938 46.96875 28.730469 47.054688 C 28.371094 47.140625 28.011719 47.207031 27.648438 47.253906 C 27.285156 47.300781 26.921875 47.324219 26.554688 47.328125 C 26.1875 47.335938 25.820312 47.320312 25.457031 47.28125 C 25.09375 47.246094 24.730469 47.191406 24.371094 47.113281 C 24.015625 47.035156 23.660156 46.941406 23.3125 46.824219 C 22.964844 46.707031 22.625 46.574219 22.292969 46.417969 C 21.960938 46.265625 21.640625 46.089844 21.324219 45.902344 C 21.011719 45.710938 20.710938 45.503906 20.421875 45.277344 C 20.132812 45.054688 19.855469 44.8125 19.59375 44.558594 C 19.328125 44.304688 19.082031 44.035156 18.847656 43.75 C 18.617188 43.46875 18.402344 43.171875 18.199219 42.863281 C 18 42.558594 17.820312 42.242188 17.65625 41.914062 C 17.492188 41.585938 17.347656 41.25 17.21875 40.90625 C 17.09375 40.5625 16.988281 40.210938 16.898438 39.855469 C 16.8125 39.5 16.746094 39.140625 16.699219 38.777344 C 16.652344 38.414062 16.625 38.046875 16.621094 37.679688 C 16.613281 37.3125 16.628906 36.949219 16.664062 36.582031 C 16.699219 36.21875 16.753906 35.859375 16.832031 35.5 C 16.90625 35.140625 17.003906 34.785156 17.117188 34.4375 C 17.234375 34.089844 17.367188 33.75 17.519531 33.417969 C 17.675781 33.085938 17.847656 32.761719 18.035156 32.449219 C 18.226562 32.136719 18.433594 31.832031 18.65625 31.542969 C 18.878906 31.253906 19.117188 30.976562 19.371094 30.710938 C 19.628906 30.449219 19.894531 30.199219 20.179688 29.964844 C 20.460938 29.734375 20.753906 29.515625 21.0625 29.316406 C 21.371094 29.113281 21.6875 28.933594 22.011719 28.765625 C 22.339844 28.601562 22.675781 28.457031 23.019531 28.328125 C 23.363281 28.203125 23.714844 28.09375 24.070312 28.007812 C 24.425781 27.917969 24.785156 27.851562 25.148438 27.800781 C 25.511719 27.753906 25.875 27.726562 26.242188 27.722656 C 26.609375 27.714844 26.972656 27.726562 27.339844 27.761719 C 27.703125 27.796875 28.066406 27.851562 28.425781 27.925781 C 28.785156 28 29.136719 28.09375 29.484375 28.207031 C 29.832031 28.324219 30.175781 28.457031 30.507812 28.609375 C 30.839844 28.761719 31.164062 28.933594 31.476562 29.121094 C 31.792969 29.308594 32.09375 29.515625 32.386719 29.738281 C 32.675781 29.960938 32.953125 30.199219 33.21875 30.453125 C 33.484375 30.707031 33.730469 30.976562 33.964844 31.257812 C 34.199219 31.539062 34.417969 31.832031 34.621094 32.140625 C 34.820312 32.445312 35.003906 32.761719 35.171875 33.089844 L 32.148438 34.625 C 31.929688 34.195312 31.667969 33.796875 31.359375 33.429688 C 31.054688 33.058594 30.707031 32.726562 30.324219 32.4375 C 29.945312 32.144531 29.535156 31.898438 29.097656 31.699219 C 28.660156 31.5 28.207031 31.351562 27.734375 31.253906 C 27.265625 31.15625 26.789062 31.113281 26.308594 31.121094 C 25.828125 31.128906 25.355469 31.195312 24.886719 31.308594 C 24.421875 31.425781 23.972656 31.589844 23.546875 31.808594 C 23.117188 32.023438 22.714844 32.285156 22.347656 32.59375 C 21.976562 32.898438 21.644531 33.242188 21.351562 33.625 C 21.058594 34.003906 20.8125 34.414062 20.609375 34.851562 C 20.410156 35.285156 20.257812 35.742188 20.160156 36.210938 C 20.0625 36.679688 20.015625 37.15625 20.023438 37.636719 C 20.03125 38.117188 20.09375 38.589844 20.207031 39.058594 C 20.320312 39.523438 20.484375 39.972656 20.699219 40.402344 C 20.917969 40.832031 21.175781 41.234375 21.480469 41.605469 C 21.789062 41.976562 22.128906 42.308594 22.511719 42.601562 C 22.890625 42.898438 23.296875 43.144531 23.734375 43.347656 C 24.171875 43.550781 24.625 43.703125 25.09375 43.800781 C 25.5625 43.902344 26.039062 43.949219 26.519531 43.941406 C 27 43.9375 27.472656 43.878906 27.941406 43.765625 C 28.40625 43.652344 28.855469 43.488281 29.289062 43.273438 C 29.71875 43.058594 30.117188 42.800781 30.492188 42.496094 C 30.863281 42.191406 31.195312 41.851562 31.492188 41.472656 C 31.789062 41.09375 32.039062 40.683594 32.242188 40.25 Z M 35.308594 41.679688" fill-rule="evenodd"/></g></g></g><g fill="#5E17EB"><g><g><path d="M 7.609375 -18.96875 L 0.140625 -18.96875 L 0.140625 -23.375 L 20.5 -23.375 L 20.5 -18.96875 L 13.015625 -18.96875 L 13.015625 0 L 7.609375 0 Z M 7.609375 -18.96875" transform="translate(52.929 49.436)"/></g></g></g><g fill="#5E17EB"><g><g><path d="M 10.953125 0.265625 C 9.054688 0.265625 7.359375 -0.128906 5.859375 -0.921875 C 4.359375 -1.710938 3.179688 -2.804688 2.328125 -4.203125 C 1.484375 -5.609375 1.0625 -7.203125 1.0625 -8.984375 C 1.0625 -10.765625 1.484375 -12.351562 2.328125 -13.75 C 3.179688 -15.15625 4.359375 -16.253906 5.859375 -17.046875 C 7.359375 -17.835938 9.054688 -18.234375 10.953125 -18.234375 C 12.847656 -18.234375 14.539062 -17.835938 16.03125 -17.046875 C 17.519531 -16.253906 18.6875 -15.15625 19.53125 -13.75 C 20.375 -12.351562 20.796875 -10.765625 20.796875 -8.984375 C 20.796875 -7.203125 20.375 -5.609375 19.53125 -4.203125 C 18.6875 -2.804688 17.519531 -1.710938 16.03125 -0.921875 C 14.539062 -0.128906 12.847656 0.265625 10.953125 0.265625 Z M 10.953125 -4 C 12.285156 -4 13.378906 -4.453125 14.234375 -5.359375 C 15.097656 -6.265625 15.53125 -7.472656 15.53125 -8.984375 C 15.53125 -10.492188 15.097656 -11.695312 14.234375 -12.59375 C 13.378906 -13.5 12.285156 -13.953125 10.953125 -13.953125 C 9.617188 -13.953125 8.515625 -13.5 7.640625 -12.59375 C 6.773438 -11.695312 6.34375 -10.492188 6.34375 -8.984375 C 6.34375 -7.472656 6.773438 -6.265625 7.640625 -5.359375 C 8.515625 -4.453125 9.617188 -4 10.953125 -4 Z M 10.953125 -4" transform="translate(72.059 49.436)"/></g></g></g><g fill="#5E17EB"><g><g><path d="M 8.453125 0.265625 C 6.953125 0.265625 5.488281 0.0820312 4.0625 -0.28125 C 2.644531 -0.644531 1.515625 -1.109375 0.671875 -1.671875 L 2.40625 -5.40625 C 3.207031 -4.894531 4.175781 -4.476562 5.3125 -4.15625 C 6.445312 -3.832031 7.554688 -3.671875 8.640625 -3.671875 C 10.847656 -3.671875 11.953125 -4.21875 11.953125 -5.3125 C 11.953125 -5.820312 11.648438 -6.1875 11.046875 -6.40625 C 10.453125 -6.632812 9.53125 -6.828125 8.28125 -6.984375 C 6.8125 -7.203125 5.597656 -7.457031 4.640625 -7.75 C 3.679688 -8.039062 2.851562 -8.550781 2.15625 -9.28125 C 1.457031 -10.019531 1.109375 -11.066406 1.109375 -12.421875 C 1.109375 -13.554688 1.4375 -14.5625 2.09375 -15.4375 C 2.75 -16.320312 3.703125 -17.007812 4.953125 -17.5 C 6.210938 -17.988281 7.703125 -18.234375 9.421875 -18.234375 C 10.679688 -18.234375 11.941406 -18.09375 13.203125 -17.8125 C 14.460938 -17.53125 15.503906 -17.144531 16.328125 -16.65625 L 14.59375 -12.953125 C 13.007812 -13.847656 11.285156 -14.296875 9.421875 -14.296875 C 8.304688 -14.296875 7.46875 -14.140625 6.90625 -13.828125 C 6.351562 -13.515625 6.078125 -13.113281 6.078125 -12.625 C 6.078125 -12.0625 6.375 -11.671875 6.96875 -11.453125 C 7.570312 -11.234375 8.53125 -11.019531 9.84375 -10.8125 C 11.3125 -10.570312 12.515625 -10.3125 13.453125 -10.03125 C 14.390625 -9.75 15.203125 -9.238281 15.890625 -8.5 C 16.578125 -7.769531 16.921875 -6.75 16.921875 -5.4375 C 16.921875 -4.320312 16.585938 -3.332031 15.921875 -2.46875 C 15.253906 -1.601562 14.28125 -0.929688 13 -0.453125 C 11.71875 0.0234375 10.203125 0.265625 8.453125 0.265625 Z M 8.453125 0.265625" transform="translate(92.424 49.436)"/></g></g></g><g fill="#5E17EB"><g><g><path d="M 8.453125 0.265625 C 6.953125 0.265625 5.488281 0.0820312 4.0625 -0.28125 C 2.644531 -0.644531 1.515625 -1.109375 0.671875 -1.671875 L 2.40625 -5.40625 C 3.207031 -4.894531 4.175781 -4.476562 5.3125 -4.15625 C 6.445312 -3.832031 7.554688 -3.671875 8.640625 -3.671875 C 10.847656 -3.671875 11.953125 -4.21875 11.953125 -5.3125 C 11.953125 -5.820312 11.648438 -6.1875 11.046875 -6.40625 C 10.453125 -6.632812 9.53125 -6.828125 8.28125 -6.984375 C 6.8125 -7.203125 5.597656 -7.457031 4.640625 -7.75 C 3.679688 -8.039062 2.851562 -8.550781 2.15625 -9.28125 C 1.457031 -10.019531 1.109375 -11.066406 1.109375 -12.421875 C 1.109375 -13.554688 1.4375 -14.5625 2.09375 -15.4375 C 2.75 -16.320312 3.703125 -17.007812 4.953125 -17.5 C 6.210938 -17.988281 7.703125 -18.234375 9.421875 -18.234375 C 10.679688 -18.234375 11.941406 -18.09375 13.203125 -17.8125 C 14.460938 -17.53125 15.503906 -17.144531 16.328125 -16.65625 L 14.59375 -12.953125 C 13.007812 -13.847656 11.285156 -14.296875 9.421875 -14.296875 C 8.304688 -14.296875 7.46875 -14.140625 6.90625 -13.828125 C 6.351562 -13.515625 6.078125 -13.113281 6.078125 -12.625 C 6.078125 -12.0625 6.375 -11.671875 6.96875 -11.453125 C 7.570312 -11.234375 8.53125 -11.019531 9.84375 -10.8125 C 11.3125 -10.570312 12.515625 -10.3125 13.453125 -10.03125 C 14.390625 -9.75 15.203125 -9.238281 15.890625 -8.5 C 16.578125 -7.769531 16.921875 -6.75 16.921875 -5.4375 C 16.921875 -4.320312 16.585938 -3.332031 15.921875 -2.46875 C 15.253906 -1.601562 14.28125 -0.929688 13 -0.453125 C 11.71875 0.0234375 10.203125 0.265625 8.453125 0.265625 Z M 8.453125 0.265625" transform="translate(108.649 49.436)"/></g></g></g><g fill="#5E17EB"><g><g><path d="M 24.046875 0 L 24 -14.03125 L 17.125 -2.46875 L 14.6875 -2.46875 L 7.84375 -13.71875 L 7.84375 0 L 2.765625 0 L 2.765625 -23.375 L 7.25 -23.375 L 16 -8.84375 L 24.609375 -23.375 L 29.046875 -23.375 L 29.109375 0 Z M 24.046875 0" transform="translate(132.82 49.436)"/></g></g></g><g fill="#5E17EB"><g><g><path d="M 20 -8.921875 C 20 -8.847656 19.96875 -8.378906 19.90625 -7.515625 L 6.3125 -7.515625 C 6.550781 -6.398438 7.128906 -5.519531 8.046875 -4.875 C 8.960938 -4.226562 10.097656 -3.90625 11.453125 -3.90625 C 12.390625 -3.90625 13.21875 -4.039062 13.9375 -4.3125 C 14.664062 -4.59375 15.335938 -5.035156 15.953125 -5.640625 L 18.734375 -2.640625 C 17.035156 -0.703125 14.5625 0.265625 11.3125 0.265625 C 9.289062 0.265625 7.5 -0.128906 5.9375 -0.921875 C 4.382812 -1.710938 3.179688 -2.804688 2.328125 -4.203125 C 1.484375 -5.609375 1.0625 -7.203125 1.0625 -8.984375 C 1.0625 -10.742188 1.476562 -12.328125 2.3125 -13.734375 C 3.15625 -15.148438 4.304688 -16.253906 5.765625 -17.046875 C 7.222656 -17.835938 8.851562 -18.234375 10.65625 -18.234375 C 12.414062 -18.234375 14.003906 -17.851562 15.421875 -17.09375 C 16.847656 -16.332031 17.96875 -15.242188 18.78125 -13.828125 C 19.59375 -12.421875 20 -10.785156 20 -8.921875 Z M 10.6875 -14.296875 C 9.507812 -14.296875 8.519531 -13.957031 7.71875 -13.28125 C 6.914062 -12.613281 6.425781 -11.703125 6.25 -10.546875 L 15.09375 -10.546875 C 14.914062 -11.679688 14.425781 -12.585938 13.625 -13.265625 C 12.820312 -13.953125 11.84375 -14.296875 10.6875 -14.296875 Z M 10.6875 -14.296875" transform="translate(163.2 49.436)"/></g></g></g><g fill="#5E17EB"><g><g><path d="M 18.171875 -5.015625 L 7.3125 -5.015625 L 5.25 0 L -0.296875 0 L 10.125 -23.375 L 15.453125 -23.375 L 25.90625 0 L 20.234375 0 Z M 16.46875 -9.109375 L 12.75 -18.0625 L 9.046875 -9.109375 Z M 16.46875 -9.109375" transform="translate(190.71 49.436)"/></g></g></g><g fill="#5E17EB"><g><g><path d="M 13.953125 0.40625 C 11.578125 0.40625 9.425781 -0.109375 7.5 -1.140625 C 5.570312 -2.179688 4.054688 -3.617188 2.953125 -5.453125 C 1.847656 -7.296875 1.296875 -9.375 1.296875 -11.6875 C 1.296875 -14 1.847656 -16.070312 2.953125 -17.90625 C 4.054688 -19.75 5.570312 -21.1875 7.5 -22.21875 C 9.425781 -23.257812 11.585938 -23.78125 13.984375 -23.78125 C 16.015625 -23.78125 17.847656 -23.421875 19.484375 -22.703125 C 21.117188 -21.992188 22.492188 -20.972656 23.609375 -19.640625 L 20.140625 -16.421875 C 18.554688 -18.253906 16.59375 -19.171875 14.25 -19.171875 C 12.8125 -19.171875 11.523438 -18.851562 10.390625 -18.21875 C 9.253906 -17.582031 8.367188 -16.695312 7.734375 -15.5625 C 7.097656 -14.425781 6.78125 -13.132812 6.78125 -11.6875 C 6.78125 -10.238281 7.097656 -8.945312 7.734375 -7.8125 C 8.367188 -6.675781 9.253906 -5.789062 10.390625 -5.15625 C 11.523438 -4.519531 12.8125 -4.203125 14.25 -4.203125 C 16.59375 -4.203125 18.554688 -5.128906 20.140625 -6.984375 L 23.609375 -3.765625 C 22.492188 -2.410156 21.113281 -1.375 19.46875 -0.65625 C 17.820312 0.0507812 15.984375 0.40625 13.953125 0.40625 Z M 13.953125 0.40625" transform="translate(222.726 49.436)"/></g></g></g><g fill="#5E17EB"><g><g><path d="M 10.953125 0.265625 C 9.054688 0.265625 7.359375 -0.128906 5.859375 -0.921875 C 4.359375 -1.710938 3.179688 -2.804688 2.328125 -4.203125 C 1.484375 -5.609375 1.0625 -7.203125 1.0625 -8.984375 C 1.0625 -10.765625 1.484375 -12.351562 2.328125 -13.75 C 3.179688 -15.15625 4.359375 -16.253906 5.859375 -17.046875 C 7.359375 -17.835938 9.054688 -18.234375 10.953125 -18.234375 C 12.847656 -18.234375 14.539062 -17.835938 16.03125 -17.046875 C 17.519531 -16.253906 18.6875 -15.15625 19.53125 -13.75 C 20.375 -12.351562 20.796875 -10.765625 20.796875 -8.984375 C 20.796875 -7.203125 20.375 -5.609375 19.53125 -4.203125 C 18.6875 -2.804688 17.519531 -1.710938 16.03125 -0.921875 C 14.539062 -0.128906 12.847656 0.265625 10.953125 0.265625 Z M 10.953125 -4 C 12.285156 -4 13.378906 -4.453125 14.234375 -5.359375 C 15.097656 -6.265625 15.53125 -7.472656 15.53125 -8.984375 C 15.53125 -10.492188 15.097656 -11.695312 14.234375 -12.59375 C 13.378906 -13.5 12.285156 -13.953125 10.953125 -13.953125 C 9.617188 -13.953125 8.515625 -13.5 7.640625 -12.59375 C 6.773438 -11.695312 6.34375 -10.492188 6.34375 -8.984375 C 6.34375 -7.472656 6.773438 -6.265625 7.640625 -5.359375 C 8.515625 -4.453125 9.617188 -4 10.953125 -4 Z M 10.953125 -4" transform="translate(245.695 49.436)"/></g></g></g><g fill="#5E17EB"><g><g><path d="M 2.40625 -17.96875 L 7.609375 -17.96875 L 7.609375 0 L 2.40625 0 Z M 5.015625 -20.46875 C 4.054688 -20.46875 3.273438 -20.742188 2.671875 -21.296875 C 2.078125 -21.859375 1.78125 -22.550781 1.78125 -23.375 C 1.78125 -24.195312 2.078125 -24.882812 2.671875 -25.4375 C 3.273438 -26 4.054688 -26.28125 5.015625 -26.28125 C 5.972656 -26.28125 6.75 -26.007812 7.34375 -25.46875 C 7.945312 -24.9375 8.25 -24.269531 8.25 -23.46875 C 8.25 -22.601562 7.945312 -21.882812 7.34375 -21.3125 C 6.75 -20.75 5.972656 -20.46875 5.015625 -20.46875 Z M 5.015625 -20.46875" transform="translate(266.06 49.436)"/></g></g></g><g fill="#5E17EB"><g><g><path d="M 13.328125 -18.234375 C 15.546875 -18.234375 17.335938 -17.5625 18.703125 -16.21875 C 20.078125 -14.882812 20.765625 -12.90625 20.765625 -10.28125 L 20.765625 0 L 15.5625 0 L 15.5625 -9.484375 C 15.5625 -10.910156 15.25 -11.972656 14.625 -12.671875 C 14 -13.367188 13.097656 -13.71875 11.921875 -13.71875 C 10.609375 -13.71875 9.5625 -13.3125 8.78125 -12.5 C 8 -11.6875 7.609375 -10.476562 7.609375 -8.875 L 7.609375 0 L 2.40625 0 L 2.40625 -17.96875 L 7.375 -17.96875 L 7.375 -15.859375 C 8.070312 -16.617188 8.929688 -17.203125 9.953125 -17.609375 C 10.972656 -18.023438 12.097656 -18.234375 13.328125 -18.234375 Z M 13.328125 -18.234375" transform="translate(274.606 49.436)"/></g></g></g></svg>